<svg xmlns="http://www.w3.org/2000/svg" viewBox="0 0 512 512" fill="none">
  <!-- Background with rounded corners -->
  <rect width="512" height="512" rx="102" fill="#0066CC"/>

  <!-- Bicycle icon - centered and properly positioned -->
  <g transform="translate(256, 200) scale(10)">
    <path
      fill="white"
      d="M15.5 5.5c1.1 0 2-.9 2-2s-.9-2-2-2-2 .9-2 2 .9 2 2 2zM5 12c-2.8 0-5 2.2-5 5s2.2 5 5 5 5-2.2 5-5-2.2-5-5-5zm0 8.5c-1.9 0-3.5-1.6-3.5-3.5s1.6-3.5 3.5-3.5 3.5 1.6 3.5 3.5-1.6 3.5-3.5 3.5zm5.8-10l2.4-2.4.8.8c1.3 1.3 3 2.1 5.1 2.1V9c-1.5 0-2.7-.6-3.6-1.5l-1.9-1.9c-.5-.4-1-.6-1.6-.6s-1.1.2-1.4.6L7.8 8.4c-.4.4-.6.9-.6 1.4 0 .6.2 1.1.6 1.4L11 14v5h2v-6.2l-2.2-2.3zM19 12c-2.8 0-5 2.2-5 5s2.2 5 5 5 5-2.2 5-5-2.2-5-5-5zm0 8.5c-1.9 0-3.5-1.6-3.5-3.5s1.6-3.5 3.5-3.5 3.5 1.6 3.5 3.5-1.6 3.5-3.5 3.5z"
      transform="translate(-12, -12)"
    />
  </g>

  <!-- NYC text -->
  <text
    x="256"
    y="445"
    font-family="-apple-system, BlinkMacSystemFont, 'Segoe UI', system-ui, sans-serif"
    font-size="64"
    font-weight="800"
    fill="white"
    text-anchor="middle"
    letter-spacing="4"
  >NYC</text>
</svg>
